<svg id="L1" xmlns="http://www.w3.org/2000/svg" viewBox="0 0 1801.38 400"><defs><style>.cls-1{fill:#5791cc;}.cls-2{fill:#0f1b33;}.cls-3{fill:#2c4e7e;}.cls-4{fill:#152642;}.cls-5{fill:#436db0;}</style></defs><path class="cls-1" d="M1693.4,228.21c5.79,1.73,14.41,3.88,18.79-1.71l.41.15a20,20,0,0,0,5.34,1.5.5.5,0,0,0,.5-.7,21,21,0,0,1-1.59-4.74.51.51,0,0,0-.9-.21,6.8,6.8,0,0,1-5.5,2.49.44.44,0,0,0-.28.07,8.5,8.5,0,0,0-3.37,0c-2.11.46-4.14,1.19-6.27,1.58a40.06,40.06,0,0,1-6.92.67C1693.14,227.33,1692.86,228.05,1693.4,228.21Z"/><path class="cls-1" d="M1742.8,235c-.07-1.65-.13-3.3-.19-5,0-.38-.59-.62-.83-.28a26.08,26.08,0,0,1-1.75,2.18.31.31,0,0,0-.12-.14c-4-2.56-9.56-2.1-13.54.24a.44.44,0,0,0,.05.75c2.9,1,6.17,2.69,9.32,2.51a6.5,6.5,0,0,0,3.86-1.62,3.57,3.57,0,0,0,2.65,1.81A.47.47,0,0,0,1742.8,235Z"/><path class="cls-1" d="M1729.48,210.65a12.94,12.94,0,0,1-4.08,3.08c-5.36-2.3-12.66-3.13-17.35.89a.3.3,0,0,0,.14.54c5.54.85,11.92,1.63,17.1-.65,1.19.59,2.43,1.09,3.64,1.64a.33.33,0,0,0,.46-.26c.24-1.66.47-3.33.71-5A.35.35,0,0,0,1729.48,210.65Z"/><path class="cls-1" d="M1678.05,215.31a.43.43,0,0,0-.72-.1,4.11,4.11,0,0,0-1,2.56,4.21,4.21,0,0,1-.23.93c-4.42-2.63-10.68-1.1-14.2,2.3-.18.17-.16.53.14.56a38.82,38.82,0,0,0,10.76-.45c1.1-.2,2.73-.32,3.57-1.19a13.36,13.36,0,0,1,1.24.65c.22.14.6.14.69-.17A7.38,7.38,0,0,0,1678.05,215.31Z"/><path class="cls-1" d="M1673,235.34a17,17,0,0,1,.24-4.82.42.42,0,0,0-.35-.46c-1.84-.15-1.85,1.61-1.87,3a1.6,1.6,0,0,0-.44,0,.27.27,0,0,0-.21-.33c-3.82-.92-7,2.24-9.42,4.78a.34.34,0,0,0,.32.55l4.88-1a29.38,29.38,0,0,0,4.07-.84,2.2,2.2,0,0,0,1.51-1.52,1.33,1.33,0,0,0,0-.24,1.73,1.73,0,0,1,.41,1C1672.22,236,1673,235.87,1673,235.34Z"/><path class="cls-1" d="M1742.55,202.34c5.86,1.43,14.58,3.14,18.67-2.67l.42.12A19.42,19.42,0,0,0,1767,201a.5.5,0,0,0,.47-.73,20.42,20.42,0,0,1-1.82-4.65.52.52,0,0,0-.92-.16,6.78,6.78,0,0,1-5.36,2.77.51.51,0,0,0-.28.08,8.45,8.45,0,0,0-3.37.19c-2.08.56-4.07,1.39-6.17,1.9a40.94,40.94,0,0,1-6.88,1C1742.24,201.47,1742,202.2,1742.55,202.34Z"/><path class="cls-1" d="M1705.27,204l-1.77-4.64a.48.48,0,0,0-.88,0c-.28.87-.58,1.77-.95,2.62a.46.46,0,0,0-.17-.09c-4.62-1.14-9.72,1.09-12.74,4.58a.44.44,0,0,0,.29.69c3.07,0,6.71.56,9.63-.61a6.55,6.55,0,0,0,3.13-2.78,3.56,3.56,0,0,0,3.1.86A.47.47,0,0,0,1705.27,204Z"/><path class="cls-1" d="M1681.27,203a12.87,12.87,0,0,1-4.09,3.08c-5.36-2.29-12.65-3.13-17.35.89a.31.31,0,0,0,.14.54c5.55.85,11.93,1.63,17.1-.64,1.2.58,2.44,1.09,3.64,1.63a.34.34,0,0,0,.47-.26c.23-1.66.47-3.32.7-5A.35.35,0,0,0,1681.27,203Z"/><path class="cls-1" d="M1644.81,190.39a.43.43,0,0,0-.72.08,4.06,4.06,0,0,0-.26,2.73,4.44,4.44,0,0,1,0,1c-4.95-1.38-10.59,1.74-13.1,5.94a.32.32,0,0,0,.29.5,38.94,38.94,0,0,0,10.26-3.25c1-.48,2.55-1,3.14-2.09.45.08.91.18,1.37.31.24.07.6,0,.61-.34A7.38,7.38,0,0,0,1644.81,190.39Z"/><path class="cls-1" d="M1640.74,207a17,17,0,0,1,.24-4.82.41.41,0,0,0-.35-.46c-1.85-.15-1.85,1.6-1.87,3a1.63,1.63,0,0,0-.44,0,.28.28,0,0,0-.21-.33c-3.82-.92-7,2.24-9.42,4.78a.34.34,0,0,0,.32.55l4.88-1a29.41,29.41,0,0,0,4.07-.85,2.17,2.17,0,0,0,1.51-1.51,1.57,1.57,0,0,0,0-.24,1.68,1.68,0,0,1,.42,1C1640,207.61,1640.79,207.5,1640.74,207Z"/><path class="cls-1" d="M1618.66,237.71c6,.49,14.9.8,18-5.58l.43.06a19.38,19.38,0,0,0,5.53.36.5.5,0,0,0,.34-.79,20.48,20.48,0,0,1-2.53-4.31.51.51,0,0,0-.93,0,6.76,6.76,0,0,1-4.86,3.57.53.53,0,0,0-.26.13,8.39,8.39,0,0,0-3.29.72c-2,.88-3.8,2-5.8,2.84a39.88,39.88,0,0,1-6.63,2.1C1618.22,236.9,1618.1,237.66,1618.66,237.71Z"/><path class="cls-1" d="M1170.37,221.85l.12-5a.48.48,0,0,0-.81-.34,24.42,24.42,0,0,1-1.88,2.06.29.29,0,0,0-.11-.14c-3.85-2.82-9.41-2.7-13.53-.62a.44.44,0,0,0,0,.75c2.83,1.2,6,3.07,9.14,3.1a6.55,6.55,0,0,0,4-1.38,3.55,3.55,0,0,0,2.53,2A.47.47,0,0,0,1170.37,221.85Z"/><path class="cls-1" d="M1647.56,215.57a12.9,12.9,0,0,1-4.09,3.09c-5.35-2.3-12.65-3.13-17.35.89a.31.31,0,0,0,.15.54c5.54.85,11.92,1.62,17.1-.65,1.19.58,2.43,1.09,3.63,1.64a.34.34,0,0,0,.47-.27c.23-1.66.47-3.32.7-5A.35.35,0,0,0,1647.56,215.57Z"/><path class="cls-1" d="M1617.16,216.6a.42.42,0,0,0-.71.08,4.13,4.13,0,0,0-.27,2.73,4.5,4.5,0,0,1,0,1c-5-1.38-10.6,1.74-13.11,5.94-.12.21,0,.55.29.5a38.83,38.83,0,0,0,10.26-3.25c1-.49,2.56-1,3.14-2.09a13.49,13.49,0,0,1,1.37.31c.24.07.61,0,.61-.34A7.27,7.27,0,0,0,1617.16,216.6Z"/><path class="cls-1" d="M765.45,205.53a16.43,16.43,0,0,1,1.26-4.66.42.42,0,0,0-.25-.52c-1.76-.54-2.15,1.17-2.46,2.5a1.44,1.44,0,0,0-.42-.11.27.27,0,0,0-.13-.37c-3.54-1.72-7.38.68-10.23,2.66a.34.34,0,0,0,.19.6l5,.08a30.42,30.42,0,0,0,4.16,0,2.21,2.21,0,0,0,1.8-1.15l.09-.23a1.7,1.7,0,0,1,.18,1.09C764.56,206,765.38,206.06,765.45,205.53Z"/><path class="cls-2" d="M799.46,228.73a88.12,88.12,0,0,1-1.72-11.4c0-.5-.86-.69-.94-.13a3.65,3.65,0,0,1-1.74,2.68c0-.29.07-.58.13-.88.39-1.91,2-4.46.15-6.15-1.44-1.29-4.27-.87-6-.43a11.35,11.35,0,0,0-5.89,3.76c-1.84,2.26-2.48,5.16-3.92,7.65-.34.59-.79,1.17-.48,1.88a2,2,0,0,0,.92.89,12.51,12.51,0,0,0,2.9,4.4,6.41,6.41,0,0,0,2.18,1,9.83,9.83,0,0,1,4,2.12.45.45,0,0,0,.7-.54,7,7,0,0,0-1.38-2.06c1.77.48,3.63,2,5.42,1.76,2.17-.24,2.73-2.22,2.54-4.1a24.82,24.82,0,0,0-.57-3.15,7.81,7.81,0,0,1,2.68,3.12C798.79,229.68,799.57,229.28,799.46,228.73Z"/><path class="cls-2" d="M442,203.61l.18-.27a.1.1,0,0,1,.06-.09c2.28-3.61,5.64-6.8,9.85-7.94a11,11,0,0,1,6.06,0c3.26,1,5.88,3.26,9.5,2.38.37-.09.76.42.41.7a7.51,7.51,0,0,0-2.27,2.64c-1,2.05.19,1.31,1.49.87A23.14,23.14,0,0,0,474,198.3h0c.38-.18.85.32.47.61l-.08.06h0l-.21.15-.5.37c-1.65,1.25-3.24,2.75-3.21,5,0,2.43,1.92,3.82,3.77,5.15.38.28,0,.92-.38.65-2.84-1.95-5.9-3.9-9.3-4.32a5.79,5.79,0,0,1,2.88,4.87.44.44,0,0,1-.55.42c-6.86-1.67-17.46,1.24-22.51-4.88a5.65,5.65,0,0,1-1.07-.88,5.32,5.32,0,0,1-.93-1.22A.44.44,0,0,1,442,203.61Z"/><path class="cls-3" d="M718.4,215.74a14.15,14.15,0,0,1-2,4.17c-1.4-3.65-3.8-5.71-8.07-5.92a9.19,9.19,0,0,0-8.88,4.91,7.34,7.34,0,0,1-2.07,2,.52.52,0,0,0,.26,1c.2,0,1,2,1.18,2.26a5.19,5.19,0,0,0,1.75,1.21,44,44,0,0,0,6.94,2.62c1.52.44,4.09,1.37,5.69.74s1.68-3.19,1.91-4.78a2.93,2.93,0,0,1,1.72,2.1.44.44,0,0,0,.86-.12,36.51,36.51,0,0,1,1.56-9.95C719.4,215.44,718.58,215.22,718.4,215.74Z"/><path class="cls-4" d="M417.21,174.28a7.3,7.3,0,0,0-1.7-3.44,24.75,24.75,0,0,1-.22,3c-.27,1.74-1.24,3.42-3.26,3.14-1.67-.24-3-2-4.51-2.84a6.51,6.51,0,0,1,.78,2.18.42.42,0,0,1-.76.33,9.17,9.17,0,0,0-3.15-2.85,5.88,5.88,0,0,1-1.75-1.39,11.66,11.66,0,0,1-1.6-4.66,1.82,1.82,0,0,1-.63-1c-.11-.71.43-1.14.88-1.6,1.88-1.93,3.14-4.42,5.33-6a10.64,10.64,0,0,1,6.22-2.06c1.62,0,4.29.25,5.29,1.75,1.31,2-.76,3.91-1.56,5.55-.13.26-.23.51-.33.77a3.41,3.41,0,0,0,2.2-2c.21-.49.91-.13.82.33a83.86,83.86,0,0,0-1.09,10.74C418.14,174.66,417.35,174.85,417.21,174.28Z"/><path class="cls-4" d="M331.72,189.86a4.15,4.15,0,0,0,.92.95,4.93,4.93,0,0,0,1,.65c4.95,4.76,13.77,1.17,19.84,1.91a.38.38,0,0,0,.43-.41,5,5,0,0,0-3-3.9c3,0,5.79,1.38,8.42,2.77.37.2.62-.39.26-.59-1.72-1-3.48-2-3.75-4.06-.24-1.89,1-3.34,2.27-4.58l.39-.37.17-.16h0l.06-.06c.3-.29-.15-.67-.47-.48h0a19.76,19.76,0,0,1-5.41,3.81c-1.07.51-2,1.27-1.37-.6a6.49,6.49,0,0,1,1.69-2.5c.28-.27-.11-.68-.42-.56-3,1.12-5.5-.56-8.4-1.08a9.4,9.4,0,0,0-5.21.59c-3.51,1.4-6.08,4.49-7.69,7.83a.12.12,0,0,0,0,.08l-.12.26A.38.38,0,0,0,331.72,189.86Z"/><path class="cls-5" d="M1562.9,186.14a36.38,36.38,0,0,0-1.56,9.94.44.44,0,0,1-.86.12,2.92,2.92,0,0,0-1.73-2.1c-.22,1.6-.32,4.15-1.91,4.78s-4.16-.29-5.68-.74a43,43,0,0,1-6.94-2.62,5.06,5.06,0,0,1-1.75-1.2c-.23-.28-1-2.27-1.18-2.27a.53.53,0,0,1-.27-1,7.47,7.47,0,0,0,2.08-2,9.18,9.18,0,0,1,8.88-4.91c4.27.21,6.67,2.26,8.07,5.91a13.94,13.94,0,0,0,2-4.16C1562.25,185.38,1563.07,185.6,1562.9,186.14Z"/><path class="cls-4" d="M79.07,206.44a44.2,44.2,0,0,1-.83-5.48c0-.25-.41-.34-.45-.07a1.79,1.79,0,0,1-.83,1.3,3,3,0,0,1,.06-.43c.19-.92,1-2.15.07-3-.69-.62-2-.42-2.86-.21a5.48,5.48,0,0,0-2.84,1.81c-.88,1.09-1.19,2.49-1.88,3.68-.17.29-.38.57-.24.91a1,1,0,0,0,.45.43,5.88,5.88,0,0,0,1.39,2.11,3.13,3.13,0,0,0,1,.48,4.67,4.67,0,0,1,1.93,1,.22.22,0,0,0,.34-.26,3.15,3.15,0,0,0-.67-1c.86.23,1.75.94,2.61.84,1-.11,1.32-1.07,1.23-2a11.14,11.14,0,0,0-.28-1.51,3.69,3.69,0,0,1,1.29,1.5C78.75,206.9,79.12,206.71,79.07,206.44Z"/><path class="cls-4" d="M24.29,215.51l.08-.13a.05.05,0,0,1,0,0,7.85,7.85,0,0,1,4.39-3.53,4.92,4.92,0,0,1,2.69,0c1.45.44,2.62,1.45,4.23,1.06.17,0,.34.19.18.31a3.38,3.38,0,0,0-1,1.18c-.44.91.09.58.67.39a10.46,10.46,0,0,0,3-1.62h0c.17-.09.38.14.21.27l0,0h0l-.1.07-.22.16a2.86,2.86,0,0,0-1.43,2.2c0,1.09.86,1.71,1.68,2.3.17.12,0,.41-.17.28a9.81,9.81,0,0,0-4.14-1.92,2.56,2.56,0,0,1,1.28,2.17.19.19,0,0,1-.24.19c-3.06-.75-7.78.55-10-2.17a2.83,2.83,0,0,1-.48-.4,2.41,2.41,0,0,1-.41-.54A.2.2,0,0,1,24.29,215.51Z"/><path class="cls-4" d="M113,189.67a7.33,7.33,0,0,1-1,2.14,4.25,4.25,0,0,0-4.15-3,4.71,4.71,0,0,0-4.56,2.52,3.77,3.77,0,0,1-1.07,1c-.24.11-.12.51.14.5.1,0,.49,1,.61,1.16a2.64,2.64,0,0,0,.89.62,23.73,23.73,0,0,0,3.58,1.35c.77.22,2.1.7,2.92.38s.86-1.64,1-2.46a1.53,1.53,0,0,1,.89,1.08.23.23,0,0,0,.44-.06,18.87,18.87,0,0,1,.8-5.12C113.46,189.51,113,189.4,113,189.67Z"/><path class="cls-4" d="M22.42,199.1a3.67,3.67,0,0,0-.47-1.92,14.83,14.83,0,0,1-.44,1.48c-.33.84-1,1.58-2,1.21-.81-.3-1.3-1.33-2-1.92a3.54,3.54,0,0,1,.15,1.18.22.22,0,0,1-.42.08A4.85,4.85,0,0,0,16,197.44a2.94,2.94,0,0,1-.72-.89A5.94,5.94,0,0,1,15,194a1,1,0,0,1-.2-.58c0-.36.34-.52.61-.7,1.16-.76,2.07-1.87,3.35-2.45a5.5,5.5,0,0,1,3.35-.35c.81.17,2.12.6,2.46,1.46.44,1.13-.81,1.88-1.4,2.62a2.71,2.71,0,0,0-.24.35,1.82,1.82,0,0,0,1.33-.78c.15-.23.47,0,.37.25a44.62,44.62,0,0,0-1.73,5.28C22.85,199.39,22.43,199.39,22.42,199.1Z"/><path class="cls-4" d="M131.42,216.54a2.1,2.1,0,0,0,.32.59,2.94,2.94,0,0,0,.41.47c1.81,3,6.67,2.44,9.58,3.63a.2.2,0,0,0,.27-.15,2.53,2.53,0,0,0-.94-2.33,9.47,9.47,0,0,1,3.8,2.51c.16.15.36-.11.21-.26-.72-.7-1.46-1.44-1.31-2.52a2.86,2.86,0,0,1,1.75-2l.24-.13.11-.06h0l0,0c.18-.1,0-.36-.17-.3h0a10.22,10.22,0,0,1-3.21,1.16c-.6.11-1.17.35-.59-.48a3.28,3.28,0,0,1,1.17-1c.18-.09,0-.35-.13-.33-1.65.15-2.65-1-4-1.68a5,5,0,0,0-2.66-.41,7.86,7.86,0,0,0-4.88,2.85s0,0,0,0l-.09.11A.2.2,0,0,0,131.42,216.54Z"/><path class="cls-4" d="M162.12,188.24a18.86,18.86,0,0,0-.8,5.11.22.22,0,0,1-.44.06,1.51,1.51,0,0,0-.89-1.08c-.11.82-.16,2.14-1,2.46s-2.14-.15-2.92-.38a22,22,0,0,1-3.57-1.35,2.55,2.55,0,0,1-.9-.62c-.12-.14-.5-1.16-.61-1.16a.27.27,0,0,1-.13-.5,3.86,3.86,0,0,0,1.07-1,4.7,4.7,0,0,1,4.56-2.53,4.28,4.28,0,0,1,4.15,3,7.18,7.18,0,0,0,1-2.14C161.79,187.85,162.21,188,162.12,188.24Z"/><path class="cls-5" d="M1190.48,177.23c1.2-.92,2.21-2,2.07-3,2.07-2.87,4.13-5.75,6.32-8.54.29-.38-.25-.91-.61-.59a44.71,44.71,0,0,1-5.38,4,4.76,4.76,0,0,1,1.72-3.65.45.45,0,0,0-.12-.77l-7.5-3.42a5.88,5.88,0,0,0-2.7-.71c-1.18,0-2.37.29-3.54.44-4.43.56-9.06,1.33-12.53,4.35l0-.06c-.34-.51-1.08.08-.74.58a23.59,23.59,0,0,0,4.71,5.21c.69.57,1.42.89,1.64,1.88a7.49,7.49,0,0,1,0,1.42c0,1.44,0,2.87.08,4.31a.49.49,0,0,0,.87.22c.92-1.58,1.85-3.17,2.78-4.74a4.08,4.08,0,0,0,2.23.27,7,7,0,0,1,1.88-.1c1.43.26,1.51,1.91,1.44,3.09a.45.45,0,0,0,.71.41c1.9-1.18,3.78-2.4,5.71-3.52.45-.5.87-.46,1.26.1a1.53,1.53,0,0,1,.5.19l-.78,1.05c-.2.26-.41.56-.63.86a10.94,10.94,0,0,1-2.89,1.75.45.45,0,0,0,.13.85C1188.5,179.28,1189.58,178.36,1190.48,177.23Z"/><path class="cls-5" d="M1092.31,176.66a20.21,20.21,0,0,1,17.76-.23,18.82,18.82,0,0,1,7,5.65c1.26,1.64,2.41,3.28,4.31,4.23a14.07,14.07,0,0,0,5.72,1.27c4.76.19,9.61-.39,14.37-.57a.29.29,0,0,1,.11,0l.35-.07c.17,0,.31.22.13.31-3.75,1.77-9.06,1.19-11.52,5.1-2.76,4.37-.24,9.5,2.63,13.07a.47.47,0,0,1-.67.67,16.62,16.62,0,0,1-4.64-6.53c-1-2.64-1.39-7-4.72-7.87-1.58-.4-3.44.3-5.06.32a18.85,18.85,0,0,1-4.23-.47,40.85,40.85,0,0,1-8.07-2.88,6.06,6.06,0,0,0,1.93,2.26.48.48,0,0,1-.49.83c-2.94-1.4-5.1-3.85-7.29-6.18q-3.86-4.09-7.69-8.21A.47.47,0,0,1,1092.31,176.66Z"/><path class="cls-5" d="M1053.75,200.29a2.77,2.77,0,0,1,2.77-2.76c.11-1.29.21-2.58.32-3.87a.33.33,0,0,1,.66,0c.57,2.64,3,4,5.35,4.69s4.7,1.15,7.06,1.68a10.19,10.19,0,0,1,1.94-5.47.41.41,0,0,1,.7.07,2.57,2.57,0,0,1,.16,1.85,3.85,3.85,0,0,0,.62,3.6c1.26,1.59,3.12,2.47,4.11,4.3.17.32-.21.75-.54.59l-4.12-2.05a12.16,12.16,0,0,0-2.23-.95c-2.22.54-4.18,1.93-6.35,2.6a11.82,11.82,0,0,1-7-.21C1055.46,203.74,1053.73,202.31,1053.75,200.29Z"/><path class="cls-5" d="M1580.73,212a4.72,4.72,0,0,1,.48-5.16.35.35,0,0,0-.42-.55,6,6,0,0,0-1.73,1.3,5.28,5.28,0,0,1-1,.82c-.94.54-1.87,0-2.64-.54a8.83,8.83,0,0,0-4.61-2c-2.34-.1-7.15.8-7.88,3.55a.91.91,0,0,0-.11.16h0l-.07,0a.33.33,0,0,0,.17.64c1.62-.26,2.91.9,4.39,1.32a7.51,7.51,0,0,0,3.87-.29c2.9-.68,6.94-1.53,8.9,1.26.11.2.22.4.35.59a.41.41,0,0,0,.71-.41A4.39,4.39,0,0,0,1580.73,212Z"/><path class="cls-5" d="M1226.59,186.66c-.73,2.57-1.9,5.83-5.23,5.27-2.48-.41-4.95-1.13-7.41-1.7-1.59-.36-3.39-.88-5-.19a2.89,2.89,0,0,0-1.88,3c.27,1.58,1.85,2.6,3.12,3.36a13.74,13.74,0,0,0,5.15,2,8.13,8.13,0,0,0,5-.84c1.1-.61,2-1.64,3.06-2.34a6.21,6.21,0,0,1,2.35.46,32,32,0,0,1,5,2.67,10.46,10.46,0,0,0,2,1.22c.48.23.88-.56.42-.83-.67-.38-1.34-.81-2-1.23a10.37,10.37,0,0,1-3.72-10.61C1227.6,186.4,1226.75,186.09,1226.59,186.66Z"/></svg>